# xmcd CD database file
#
# Track frame offsets:
#	150
#	23587
#	44775
#	68175
#
# Disc length: 1187 seconds
#
# Revision: 0
# Processed by: cddbd v1.5.1PL0 Copyright (c) Steve Scherf et al.
# Submitted via: CDex 1.51
#
DISCID=3104a104
DTITLE=東京Qチャンネル - 素直なままで恋をしようよ♪
DYEAR=1996
DGENRE=JPop
TTITLE0=素直なままで恋をしようよ
TTITLE1=原色の国〜Where shall we go ?〜
TTITLE2=素直なままで恋をしようよ(Original Karaoke)
TTITLE3=原色の国〜Where shall we go ?〜(Original Karaoke)
EXTD=YEAR: 1996
EXTT0=
EXTT1=
EXTT2=
EXTT3=
PLAYORDER=
